<svg width="54" height="54" viewBox="0 0 54 54" fill="none" xmlns="http://www.w3.org/2000/svg">
<circle cx="27" cy="27" r="26.5" stroke="#0069A6"/>
<path fill-rule="evenodd" clip-rule="evenodd" d="M27.5653 25.5404V29.0432H33.2661C33.0363 30.5449 31.5429 33.4507 27.5653 33.4507C24.1334 33.4507 21.3333 30.5624 21.3333 26.9999C21.3333 23.4388 24.1334 20.5491 27.5653 20.5491C29.5182 20.5491 30.825 21.3956 31.5716 22.1253L34.3 19.4545C32.5481 17.7907 30.2793 16.7837 27.5653 16.7837C22.0082 16.7837 17.5137 21.3518 17.5137 26.9999C17.5137 32.648 22.0082 37.2161 27.5653 37.2161C33.3666 37.2161 37.2164 33.0713 37.2164 27.2334C37.2164 26.5621 37.1431 26.0513 37.057 25.5404H27.5653Z" fill="#0069A6"/>
</svg>
