<svg width="48" height="48" viewBox="0 0 48 48" fill="none" xmlns="http://www.w3.org/2000/svg">
<circle cx="24" cy="24" r="23.5" stroke="#0069A6"/>
<path fill-rule="evenodd" clip-rule="evenodd" d="M24.502 22.7027V25.8162H29.5693C29.3651 27.1511 28.0376 29.734 24.502 29.734C21.4514 29.734 18.9624 27.1667 18.9624 24C18.9624 20.8346 21.4514 18.2659 24.502 18.2659C26.2379 18.2659 27.3994 19.0184 28.0632 19.667L30.4883 17.293C28.9311 15.814 26.9144 14.9189 24.502 14.9189C19.5623 14.9189 15.5672 18.9794 15.5672 24C15.5672 29.0205 19.5623 33.0811 24.502 33.0811C29.6587 33.0811 33.0807 29.3967 33.0807 24.2076C33.0807 23.6108 33.0156 23.1567 32.939 22.7027H24.502Z" fill="#0069A6"/>
</svg>
