<svg width="16" height="16" viewBox="0 0 16 16" fill="none" xmlns="http://www.w3.org/2000/svg">
<path d="M7.99979 0C4.74068 0 2.08932 2.65137 2.08932 5.91047C2.08932 6.9834 2.5705 8.13733 2.59066 8.18601C2.74607 8.55489 3.05272 9.12786 3.27384 9.46371L7.32634 15.604C7.49218 15.8557 7.73764 16 7.99979 16C8.26193 16 8.50739 15.8557 8.67323 15.6043L12.7261 9.46371C12.9475 9.12786 13.2538 8.55489 13.4093 8.18601C13.4294 8.13768 13.9103 6.98375 13.9103 5.91047C13.9103 2.65137 11.2589 0 7.99979 0ZM12.7681 7.91621C12.6294 8.24685 12.344 8.77983 12.1455 9.08092L8.09262 15.2216C8.01265 15.3429 7.98727 15.3429 7.90731 15.2216L3.85446 9.08092C3.65594 8.77983 3.3705 8.2465 3.23178 7.91586C3.22587 7.90161 2.78467 6.83946 2.78467 5.91047C2.78467 3.03485 5.12417 0.69535 7.99979 0.69535C10.8754 0.69535 13.2149 3.03485 13.2149 5.91047C13.2149 6.84085 12.7727 7.90578 12.7681 7.91621Z" fill="white"/>
<path d="M8.00009 2.78156C6.27459 2.78156 4.87102 4.18547 4.87102 5.91063C4.87102 7.63579 6.27459 9.0397 8.00009 9.0397C9.7256 9.0397 11.1292 7.63579 11.1292 5.91063C11.1292 4.18547 9.7256 2.78156 8.00009 2.78156ZM8.00009 8.34435C6.65842 8.34435 5.56637 7.25265 5.56637 5.91063C5.56637 4.5686 6.65842 3.47691 8.00009 3.47691C9.34177 3.47691 10.4338 4.5686 10.4338 5.91063C10.4338 7.25265 9.34177 8.34435 8.00009 8.34435Z" fill="white"/>
</svg>
