<svg width="77" height="78" viewBox="0 0 77 78" fill="none" xmlns="http://www.w3.org/2000/svg">
<path d="M38.8256 59.076C35.3779 59.076 32.5703 56.23 32.5703 52.7379C32.5703 49.2435 35.3756 46.3999 38.8256 46.3999C42.2757 46.3999 45.0787 49.2412 45.0787 52.7379C45.0787 56.23 42.2757 59.076 38.8256 59.076ZM38.8256 49.963C37.3144 49.963 36.086 51.2073 36.086 52.7379C36.086 54.2686 37.3144 55.5128 38.8256 55.5128C40.3391 55.5128 41.5698 54.2686 41.5698 52.7379C41.5698 51.2073 40.3391 49.963 38.8256 49.963Z" fill="#1C223F"/>
<path d="M38.8271 43.5496C35.3951 43.5496 34.1509 39.8971 33.7391 38.6987C33.2459 37.2482 32.7731 35.3097 32.332 32.9243C31.6103 29.0037 31.1035 24.5653 31.1035 23.0392C31.1035 18.7245 34.5671 15.2163 38.8271 15.2163C43.087 15.2163 46.5506 18.7245 46.5506 23.0392C46.5506 24.5653 46.0461 29.006 45.3222 32.9243C44.8856 35.3051 44.4105 37.2482 43.915 38.6941C43.5033 39.8971 42.259 43.5496 38.8271 43.5496ZM38.8271 18.7726C36.5082 18.7726 34.6169 20.6836 34.6169 23.0369C34.6169 24.2193 35.0739 28.4034 35.7865 32.269C36.196 34.4802 36.6236 36.2469 37.0602 37.5324C37.4493 38.6735 38.0059 39.9842 38.8271 39.9842C39.646 39.9842 40.2026 38.6735 40.594 37.5324C41.0306 36.2469 41.4604 34.4802 41.8654 32.269C42.578 28.4011 43.035 24.217 43.035 23.0369C43.0373 20.6836 41.146 18.7726 38.8271 18.7726Z" fill="#1C223F"/>
<path d="M49.704 2.42773C46.0978 1.29348 42.3152 0.70459 38.5032 0.70459C17.6537 0.70459 0.695312 17.8856 0.695312 39.0009C0.695312 60.114 17.6537 77.295 38.5032 77.295C59.355 77.295 76.3088 60.114 76.3088 39.0009C76.3088 33.1464 75.0487 27.5416 72.5624 22.3401C72.1371 21.4441 71.2277 20.869 70.2481 20.869C69.859 20.869 69.4834 20.9561 69.135 21.1279C67.8545 21.7558 67.3229 23.3139 67.9383 24.6086C70.0852 29.0975 71.1734 33.9369 71.1734 38.9986C71.1734 57.2428 56.5158 72.082 38.5077 72.082C20.4997 72.082 5.84435 57.2406 5.84435 38.9986C5.84435 20.7567 20.5019 5.91526 38.5077 5.91526C41.8605 5.91526 45.1137 6.4102 48.2153 7.37947" fill="#0069A6"/>
</svg>
