<svg width="69" height="67" viewBox="0 0 69 67" fill="none" xmlns="http://www.w3.org/2000/svg">
<path d="M34.7725 50.3137C31.9062 50.3137 29.5723 47.9303 29.5723 45.0056C29.5723 42.0791 31.9044 39.6975 34.7725 39.6975C37.6406 39.6975 39.9708 42.0771 39.9708 45.0056C39.9708 47.9303 37.6406 50.3137 34.7725 50.3137ZM34.7725 42.6816C33.5161 42.6816 32.4949 43.7237 32.4949 45.0056C32.4949 46.2875 33.5161 47.3296 34.7725 47.3296C36.0307 47.3296 37.0538 46.2875 37.0538 45.0056C37.0538 43.7237 36.0307 42.6816 34.7725 42.6816Z" fill="#1C223F"/>
<path d="M34.7728 37.3103C31.9198 37.3103 30.8854 34.2513 30.5431 33.2477C30.1331 32.0329 29.74 30.4094 29.3733 28.4116C28.7733 25.1281 28.3521 21.4109 28.3521 20.1328C28.3521 16.5193 31.2314 13.5812 34.7728 13.5812C38.3143 13.5812 41.1936 16.5193 41.1936 20.1328C41.1936 21.4109 40.7742 25.1301 40.1724 28.4116C39.8094 30.4055 39.4145 32.0329 39.0026 33.2438C38.6603 34.2513 37.6259 37.3103 34.7728 37.3103ZM34.7728 16.5596C32.8451 16.5596 31.2728 18.16 31.2728 20.1309C31.2728 21.1211 31.6527 24.6253 32.2452 27.8628C32.5856 29.7147 32.941 31.1943 33.304 32.2709C33.6275 33.2266 34.0901 34.3243 34.7728 34.3243C35.4537 34.3243 35.9163 33.2266 36.2417 32.2709C36.6047 31.1943 36.962 29.7147 37.2987 27.8628C37.8911 24.6234 38.271 21.1192 38.271 20.1309C38.2729 18.16 36.7006 16.5596 34.7728 16.5596Z" fill="#1C223F"/>
<path d="M43.8134 2.87086C40.8155 1.92093 37.671 1.42773 34.5019 1.42773C17.1692 1.42773 3.07129 15.8168 3.07129 33.5009C3.07129 51.1831 17.1692 65.5722 34.5019 65.5722C51.8366 65.5722 65.9307 51.1831 65.9307 33.5009C65.9307 28.5977 64.8832 23.9037 62.8162 19.5475C62.4627 18.7971 61.7066 18.3154 60.8923 18.3154C60.5688 18.3154 60.2566 18.3883 59.967 18.5323C58.9025 19.0581 58.4605 20.3631 58.972 21.4473C60.7569 25.2068 61.6615 29.2598 61.6615 33.499C61.6615 48.7785 49.4763 61.2063 34.5057 61.2063C19.5351 61.2063 7.35182 48.7766 7.35182 33.499C7.35182 18.2214 19.537 5.79167 34.5057 5.79167C37.2929 5.79167 39.9974 6.20618 42.5759 7.01794" fill="#2FA2CC"/>
</svg>
