<svg width="31" height="31" viewBox="0 0 31 31" fill="none" xmlns="http://www.w3.org/2000/svg">
<g clip-path="url(#clip0)">
<path d="M30.8108 15.0437L21.1233 5.35622C20.871 5.10392 20.4623 5.10392 20.2101 5.35622C19.9578 5.60852 19.9578 6.01721 20.2101 6.26944L28.7951 14.8545H0.645854C0.288869 14.8545 0 15.1434 0 15.5004C0 15.8573 0.288869 16.1462 0.645854 16.1462H28.7951L20.2101 24.7312C19.9578 24.9835 19.9578 25.3922 20.2101 25.6444C20.3362 25.7706 20.5015 25.8337 20.6667 25.8337C20.8319 25.8337 20.9972 25.7706 21.1234 25.6444L30.8109 15.9569C31.0631 15.7047 31.0631 15.296 30.8108 15.0437Z" fill="#ADADAD"/>
</g>
<defs>
<clipPath id="clip0">
<rect width="31" height="31" fill="white"/>
</clipPath>
</defs>
</svg>
