<svg width="75" height="58" viewBox="0 0 75 58" fill="none" xmlns="http://www.w3.org/2000/svg">
<path d="M5.36422 12.8225L5.37055 52.9638L69.6373 52.9574L69.6288 5.03652L19.6464 5.04502C18.329 5.04502 17.2587 3.96765 17.2587 2.64165C17.2587 1.31352 18.329 0.236145 19.6464 0.236145H69.6394C72.2699 0.236145 74.4107 2.38877 74.4107 5.03652V52.9638C74.4107 55.6115 72.2699 57.7663 69.6394 57.7663H5.36422C2.73368 57.7663 0.59082 55.6115 0.59082 52.9638V11.7855" fill="#2FA2CC"/>
<path d="M37.5008 32.9229C36.3798 32.9229 35.2883 32.5234 34.4311 31.7966L12.46 13.222C12.0737 12.8884 11.8288 12.4251 11.7886 11.9151C11.7443 11.4009 11.9005 10.9058 12.2278 10.5105C12.555 10.1174 13.0152 9.87727 13.5261 9.83265C13.581 9.82627 13.638 9.82202 13.6908 9.82202C14.1384 9.82202 14.5775 9.9814 14.9195 10.2746L36.8886 28.8471C37.0596 28.9938 37.2749 29.0745 37.4987 29.0745C37.7183 29.0745 37.9357 28.9938 38.1067 28.8471L60.0758 10.2746C60.4178 9.9814 60.8527 9.82627 61.3024 9.82627C61.8724 9.82627 62.4023 10.0728 62.7675 10.5084C63.4452 11.3244 63.3397 12.5378 62.5311 13.2199L40.5663 31.7966C39.7112 32.5213 38.6197 32.9229 37.5008 32.9229Z" fill="#1C223F"/>
<path d="M13.6761 48.1953C13.5388 48.1953 13.3953 48.1783 13.2623 48.1486C12.5846 47.9998 12.0441 47.4898 11.8478 46.8204C11.6472 46.1553 11.8246 45.4264 12.3101 44.9249L25.6275 30.5642C25.9738 30.1711 26.4952 29.9373 27.0399 29.9373C27.1792 29.9373 27.3186 29.9522 27.4558 29.9819C28.1314 30.1349 28.674 30.6449 28.8724 31.3122C29.0688 31.9773 28.8893 32.7041 28.4058 33.2056L15.0885 47.5684C14.7401 47.9616 14.2229 48.1953 13.6761 48.1953Z" fill="#1C223F"/>
<path d="M61.2912 48.1635C60.7718 48.1635 60.2842 47.9595 59.9231 47.5876L46.5783 33.1929C45.8584 32.4151 45.9006 31.1996 46.6691 30.4729C47.0259 30.1414 47.4925 29.9565 47.9738 29.9565C48.5037 29.9565 49.0104 30.1796 49.3714 30.5685L62.7015 44.9505C63.4024 45.7389 63.3496 46.9437 62.5917 47.6514C62.2391 47.9786 61.7768 48.1635 61.2912 48.1635Z" fill="#1C223F"/>
</svg>
