<svg width="56" height="43" viewBox="0 0 56 43" fill="none" xmlns="http://www.w3.org/2000/svg">
<path d="M10.2756 12.8387C10.2756 13.2868 10.6402 13.6496 11.0893 13.6496H20.3861C21.6133 13.6483 22.8074 14.0097 23.8259 14.6853C24.1997 14.935 24.7082 14.8338 24.9566 14.4619C25.2062 14.0886 25.1045 13.5865 24.7307 13.3368C23.4441 12.4825 21.9316 12.0277 20.3848 12.0277H11.0893C10.6402 12.0277 10.2756 12.3905 10.2756 12.8387Z" fill="#1C223F"/>
<path d="M10.2756 17.3166C10.2756 17.7648 10.6402 18.1275 11.0893 18.1275H20.3861C21.6133 18.1262 22.8074 18.4876 23.8259 19.1632C24.1997 19.4129 24.7082 19.3117 24.9566 18.9398C25.2062 18.5665 25.1045 18.0618 24.7307 17.8147C23.4441 16.9604 21.9316 16.503 20.3848 16.5056H11.0893C10.6402 16.5056 10.2756 16.8684 10.2756 17.3166Z" fill="#1C223F"/>
<path d="M10.2756 21.7945C10.2756 22.2427 10.6402 22.6054 11.0893 22.6054H20.3861C21.6133 22.6041 22.8074 22.9655 23.8259 23.6411C24.1997 23.8895 24.7082 23.7896 24.9566 23.4177C25.2062 23.0444 25.1045 22.5397 24.7307 22.2926C23.4441 21.437 21.9316 20.9809 20.3848 20.9835H11.0893C10.6402 20.9835 10.2756 21.3463 10.2756 21.7945Z" fill="#1C223F"/>
<path d="M10.2756 26.2711C10.2756 26.7192 10.6402 27.082 11.0893 27.082H20.3861C21.6133 27.0807 22.8074 27.4421 23.8259 28.1177C24.1997 28.3661 24.7082 28.2662 24.9566 27.8943C25.2062 27.521 25.1045 27.0163 24.7307 26.7692C23.4441 25.9162 21.9316 25.4614 20.3848 25.4614H11.0893C10.6402 25.4614 10.2756 25.8242 10.2756 26.2711Z" fill="#1C223F"/>
<path d="M44.2832 12.0277H34.9864C33.4409 12.0277 31.9285 12.4825 30.6419 13.3368C30.2667 13.5865 30.1663 14.0899 30.416 14.4619C30.6656 14.8351 31.1729 14.9363 31.548 14.6866C32.5638 14.011 33.7619 13.6483 34.9864 13.6509H44.2832C44.7337 13.6509 45.0982 13.2868 45.0982 12.8387C45.0982 12.3918 44.7337 12.0277 44.2832 12.0277Z" fill="#1C223F"/>
<path d="M44.2832 16.5056H34.9864C33.4409 16.5043 31.9285 16.9604 30.6419 17.8147C30.2667 18.0631 30.1663 18.5678 30.416 18.9398C30.6656 19.313 31.1729 19.4116 31.548 19.1645C32.5638 18.4889 33.7619 18.1275 34.9864 18.1288H44.2832C44.7337 18.1288 45.0982 17.7647 45.0982 17.3166C45.0982 16.8697 44.7337 16.5056 44.2832 16.5056Z" fill="#1C223F"/>
<path d="M44.2832 20.9823H34.9864C33.4409 20.9823 31.9285 21.4371 30.6419 22.2914C30.2667 22.5411 30.1663 23.0445 30.416 23.4164C30.6656 23.7897 31.1729 23.8896 31.548 23.6412C32.5638 22.9656 33.7619 22.6029 34.9864 22.6055H44.2832C44.7337 22.6055 45.0982 22.2414 45.0982 21.7932C45.0982 21.3464 44.7337 20.9823 44.2832 20.9823Z" fill="#1C223F"/>
<path d="M44.2832 25.4602H34.9864C33.4409 25.4602 31.9285 25.9163 30.6419 26.7693C30.2667 27.0164 30.1663 27.5224 30.416 27.8943C30.6656 28.2663 31.1729 28.3649 31.548 28.1178C32.5638 27.4422 33.7619 27.0808 34.9864 27.0834H44.2832C44.7337 27.0834 45.0982 26.7193 45.0982 26.2711C45.0982 25.8256 44.7337 25.4602 44.2832 25.4602Z" fill="#1C223F"/>
<path d="M51.065 3.67907H49.0797C48.9515 3.67907 48.8485 3.57656 48.8485 3.44907V3.33078C48.8485 2.7551 48.3796 2.29114 47.8023 2.29114H45.2265C44.8249 2.29114 44.4973 2.61446 44.4973 3.01665V3.19803C44.4973 3.59364 44.8209 3.91302 45.2186 3.91302H46.9873C47.1141 3.91302 47.2171 4.01686 47.2171 4.14303V28.2584V28.9261V32.8967C47.2171 33.0229 47.1141 33.1254 46.9873 33.1254H38.4197C35.0592 33.1228 31.7529 33.9547 28.8006 35.5438C28.6487 35.6266 28.4611 35.5201 28.4611 35.3492V10.0825C28.4611 6.67707 31.2377 3.91565 34.659 3.91171V2.29245C31.8255 2.29377 29.2272 3.81445 27.8429 6.24859C27.7583 6.39974 27.5351 6.39974 27.4493 6.24859C26.0636 3.81445 23.464 2.29377 20.6332 2.29245H7.48718C6.91125 2.29245 6.44231 2.75641 6.44231 3.33209V3.45038C6.44231 3.57787 6.33928 3.68039 6.21247 3.68039H4.22709C3.64984 3.68039 3.18091 4.14435 3.18091 4.72003V7.15943V9.56071V36.954C3.18091 37.5284 3.64984 37.9924 4.22709 37.9924H9.24139C14.3653 37.9924 19.4734 38.5733 24.4666 39.7194C25.5563 39.9704 26.691 39.6419 27.4783 38.869C27.5721 38.7757 27.7187 38.7757 27.8138 38.869C28.6011 39.6432 29.7345 39.9718 30.8256 39.7194C35.8187 38.5733 40.9255 37.995 46.0494 37.9924H51.0637C51.641 37.9924 52.1099 37.5271 52.1099 36.954V7.15811V4.71871C52.1112 4.14303 51.641 3.67907 51.065 3.67907ZM26.3687 37.6809C25.9777 38.0844 25.3978 38.2631 24.8338 38.1383C19.7204 36.9619 14.4882 36.3718 9.24007 36.3692H5.03947C4.91266 36.3692 4.81095 36.2693 4.81095 36.1405V7.15811V5.53097C4.81095 5.40479 4.91266 5.30359 5.03947 5.30359H6.21247C6.33928 5.30359 6.44231 5.40479 6.44231 5.53097V33.7076C6.44231 34.2833 6.91125 34.7473 7.48718 34.7473H16.8711C20.1973 34.7486 23.456 35.6397 26.3146 37.3234C26.444 37.3983 26.4718 37.5731 26.3687 37.6809ZM26.831 35.3453C26.831 35.5175 26.6435 35.6266 26.4902 35.5424C23.5393 33.9534 20.2329 33.1214 16.8725 33.1241H8.30352C8.17803 33.1241 8.075 33.0216 8.075 32.8954V4.14172C8.075 4.01554 8.17803 3.91171 8.30352 3.91171H20.6332C24.0557 3.91565 26.831 6.67707 26.831 10.0825V35.3453ZM50.4785 7.15811V36.1405C50.4785 36.2693 50.3755 36.3692 50.2474 36.3692H46.0494C40.8026 36.3718 35.5704 36.9619 30.4584 38.1383C29.8943 38.2671 29.3118 38.087 28.9208 37.6809C28.8217 37.5731 28.8481 37.3983 28.9749 37.3247C31.8321 35.6397 35.0935 34.7486 38.417 34.7473H47.801C48.3782 34.7473 48.8472 34.282 48.8472 33.7076V28.9248V28.2571V5.53097C48.8472 5.40479 48.9502 5.30359 49.0783 5.30359H50.2474C50.3755 5.30359 50.4785 5.40479 50.4785 5.53097V7.15811Z" fill="#2FA2CC"/>
</svg>
