<svg width="33" height="33" viewBox="0 0 33 33" fill="none" xmlns="http://www.w3.org/2000/svg">
<g clip-path="url(#clip0)">
<path d="M16.6306 24.904C15.2598 24.904 14.1436 23.7692 14.1436 22.3768C14.1436 20.9835 15.2589 19.8496 16.6306 19.8496C18.0023 19.8496 19.1168 20.9826 19.1168 22.3768C19.1168 23.7692 18.0023 24.904 16.6306 24.904ZM16.6306 21.2704C16.0298 21.2704 15.5413 21.7665 15.5413 22.3768C15.5413 22.9871 16.0298 23.4833 16.6306 23.4833C17.2324 23.4833 17.7217 22.9871 17.7217 22.3768C17.7217 21.7665 17.2324 21.2704 16.6306 21.2704Z" fill="#1C223F"/>
<path d="M16.6304 18.7125C15.2659 18.7125 14.7712 17.2562 14.6075 16.7783C14.4114 16.2 14.2234 15.427 14.048 14.4759C13.7611 12.9126 13.5596 11.1428 13.5596 10.5343C13.5596 8.81387 14.9367 7.41504 16.6304 7.41504C18.3241 7.41504 19.7012 8.81387 19.7012 10.5343C19.7012 11.1428 19.5006 12.9135 19.2128 14.4759C19.0392 15.4252 18.8503 16.2 18.6533 16.7765C18.4896 17.2562 17.9949 18.7125 16.6304 18.7125ZM16.6304 8.83305C15.7084 8.83305 14.9565 9.59505 14.9565 10.5334C14.9565 11.0048 15.1382 12.6732 15.4215 14.2146C15.5843 15.0962 15.7543 15.8007 15.9279 16.3133C16.0826 16.7683 16.3039 17.2909 16.6304 17.2909C16.956 17.2909 17.1773 16.7683 17.3329 16.3133C17.5065 15.8007 17.6774 15.0962 17.8384 14.2146C18.1217 12.6723 18.3034 11.0039 18.3034 10.5334C18.3043 9.59505 17.5524 8.83305 16.6304 8.83305Z" fill="#1C223F"/>
<path d="M20.9541 2.31599C19.5203 1.86372 18.0164 1.62891 16.5008 1.62891C8.21123 1.62891 1.46875 8.47959 1.46875 16.8991C1.46875 25.3176 8.21123 32.1683 16.5008 32.1683C24.7913 32.1683 31.532 25.3176 31.532 16.8991C31.532 14.5646 31.031 12.3298 30.0424 10.2558C29.8733 9.89852 29.5117 9.66919 29.1223 9.66919C28.9676 9.66919 28.8182 9.70391 28.6797 9.77243C28.1706 10.0228 27.9592 10.6441 28.2039 11.1603C29.0575 12.9502 29.4901 14.8798 29.4901 16.8981C29.4901 24.1728 23.6624 30.0897 16.5026 30.0897C9.34277 30.0897 3.51596 24.1719 3.51596 16.8981C3.51596 9.62442 9.34367 3.70659 16.5026 3.70659C17.8356 3.70659 19.1291 3.90394 20.3623 4.29042" fill="#CF424B"/>
</g>
<defs>
<clipPath id="clip0">
<rect width="33" height="31.8989" fill="white" transform="translate(0 0.949219)"/>
</clipPath>
</defs>
</svg>
