<svg width="74" height="78" viewBox="0 0 74 78" fill="none" xmlns="http://www.w3.org/2000/svg">
<path d="M4.78505 39.7202L4.7914 73.9096L69.2149 73.9041L69.2065 33.0886L19.1021 33.0959C17.7815 33.0959 16.7085 32.1782 16.7085 31.0488C16.7085 29.9176 17.7815 29 19.1021 29H69.2171C71.854 29 74 30.8335 74 33.0886V73.9096C74 76.1647 71.854 78 69.2171 78H4.78505C2.14809 78 0 76.1647 0 73.9096V38.8369" fill="#2FA2CC"/>
<circle cx="18" cy="56" r="3.75" stroke="black" stroke-width="2.5"/>
<circle cx="37" cy="56" r="3.75" stroke="black" stroke-width="2.5"/>
<circle cx="56" cy="56" r="3.75" stroke="black" stroke-width="2.5"/>
<path d="M56 29V22C56 11.5066 47.4934 3 37 3V3C26.5066 3 18 11.5066 18 22V29" stroke="#2FA2CC" stroke-width="4.5" stroke-linecap="round"/>
</svg>
