<svg width="33" height="26" viewBox="0 0 33 26" fill="none" xmlns="http://www.w3.org/2000/svg">
<path d="M3.39112 7.05264L3.39368 21.8104L29.4464 21.8081L29.443 4.19014L9.18089 4.19326C8.64685 4.19326 8.21294 3.79717 8.21294 3.30967C8.21294 2.82139 8.64685 2.42529 9.18089 2.42529H29.4473C30.5136 2.42529 31.3815 3.2167 31.3815 4.19014V21.8104C31.3815 22.7839 30.5136 23.5761 29.4473 23.5761H3.39112C2.32474 23.5761 1.45605 22.7839 1.45605 21.8104V6.67139" fill="#2FA2CC"/>
<path d="M16.419 14.4427C15.9645 14.4427 15.5221 14.2958 15.1746 14.0286L6.26783 7.19971C6.11121 7.07705 6.01193 6.90674 5.99567 6.71924C5.9777 6.53018 6.04103 6.34814 6.17369 6.20283C6.30634 6.0583 6.49292 5.97002 6.70003 5.95361C6.72228 5.95127 6.74539 5.94971 6.76679 5.94971C6.94823 5.94971 7.12624 6.0083 7.26489 6.11611L16.1708 12.9442C16.2401 12.9981 16.3274 13.0278 16.4181 13.0278C16.5071 13.0278 16.5953 12.9981 16.6646 12.9442L25.5705 6.11611C25.7092 6.0083 25.8855 5.95127 26.0678 5.95127C26.2988 5.95127 26.5137 6.04189 26.6617 6.20205C26.9364 6.50205 26.8937 6.94815 26.5659 7.19893L17.6617 14.0286C17.3151 14.295 16.8726 14.4427 16.419 14.4427Z" fill="#1C223F"/>
<path d="M6.7604 20.0572C6.70477 20.0572 6.64657 20.051 6.59265 20.04C6.31793 19.9853 6.09883 19.7978 6.01924 19.5518C5.93793 19.3072 6.00982 19.0393 6.20667 18.8549L11.6053 13.5752C11.7457 13.4307 11.9571 13.3447 12.1779 13.3447C12.2344 13.3447 12.2909 13.3502 12.3465 13.3611C12.6204 13.4174 12.8403 13.6049 12.9208 13.8502C13.0004 14.0947 12.9276 14.3619 12.7316 14.5463L7.33296 19.8268C7.19174 19.9713 6.98206 20.0572 6.7604 20.0572Z" fill="#1C223F"/>
<path d="M26.0633 20.0453C25.8528 20.0453 25.6551 19.9703 25.5087 19.8336L20.0989 14.5414C19.8071 14.2555 19.8242 13.8086 20.1357 13.5414C20.2804 13.4195 20.4695 13.3516 20.6647 13.3516C20.8795 13.3516 21.0849 13.4336 21.2312 13.5766L26.635 18.8641C26.9191 19.1539 26.8978 19.5969 26.5905 19.857C26.4476 19.9773 26.2601 20.0453 26.0633 20.0453Z" fill="#1C223F"/>
</svg>
