<svg width="16" height="23" viewBox="0 0 16 23" fill="none" xmlns="http://www.w3.org/2000/svg">
<path d="M0.25 7.28525C0.25 3.42498 3.91289 0.25 8 0.25C12.0881 0.25 15.75 3.42496 15.75 7.28525C15.75 9.22985 14.9101 11.3894 13.4809 13.9461C12.332 16.0015 10.8178 18.2878 9.08744 20.9006C8.73358 21.435 8.37068 21.9829 8 22.5454C7.62932 21.9829 7.26641 21.435 6.91254 20.9006C5.18215 18.2878 3.66802 16.0015 2.5191 13.9461C1.08994 11.3894 0.25 9.22985 0.25 7.28525ZM4.75 7.66667C4.75 9.40262 6.21506 10.7917 8 10.7917C9.78493 10.7917 11.25 9.40262 11.25 7.66667C11.25 5.93072 9.78493 4.54167 8 4.54167C6.21506 4.54167 4.75 5.93072 4.75 7.66667Z" fill="#0069A6" stroke="#107AB8" stroke-width="0.5"/>
</svg>
