<svg width="69" height="67" viewBox="0 0 69 67" fill="none" xmlns="http://www.w3.org/2000/svg">
<path d="M34.7725 50.3137C31.9062 50.3137 29.5723 47.9303 29.5723 45.0056C29.5723 42.0791 31.9044 39.6975 34.7725 39.6975C37.6406 39.6975 39.9708 42.0771 39.9708 45.0056C39.9708 47.9303 37.6406 50.3137 34.7725 50.3137ZM34.7725 42.6816C33.5161 42.6816 32.4949 43.7237 32.4949 45.0056C32.4949 46.2875 33.5161 47.3296 34.7725 47.3296C36.0307 47.3296 37.0538 46.2875 37.0538 45.0056C37.0538 43.7237 36.0307 42.6816 34.7725 42.6816Z" fill="#1C223F"/>
<path d="M34.7724 37.3104C31.9193 37.3104 30.8849 34.2515 30.5426 33.2478C30.1326 32.033 29.7395 30.4095 29.3728 28.4118C28.7728 25.1283 28.3516 21.411 28.3516 20.133C28.3516 16.5194 31.231 13.5813 34.7724 13.5813C38.3138 13.5813 41.1932 16.5194 41.1932 20.133C41.1932 21.411 40.7738 25.1302 40.1719 28.4118C39.8089 30.4057 39.414 32.033 39.0021 33.2439C38.6598 34.2514 37.6254 37.3104 34.7724 37.3104ZM34.7724 16.5597C32.8446 16.5597 31.2723 18.1602 31.2723 20.131C31.2723 21.1213 31.6522 24.6255 32.2447 27.8629C32.5851 29.7148 32.9405 31.1944 33.3035 32.271C33.627 33.2267 34.0897 34.3244 34.7724 34.3244C35.4532 34.3244 35.9158 33.2267 36.2412 32.271C36.6042 31.1944 36.9615 29.7148 37.2982 27.8629C37.8906 24.6235 38.2705 21.1193 38.2705 20.131C38.2724 18.1602 36.7001 16.5597 34.7724 16.5597Z" fill="#1C223F"/>
<path d="M43.8134 2.87086C40.8155 1.92093 37.671 1.42773 34.5019 1.42773C17.1692 1.42773 3.07129 15.8168 3.07129 33.5009C3.07129 51.1831 17.1692 65.5722 34.5019 65.5722C51.8366 65.5722 65.9307 51.1831 65.9307 33.5009C65.9307 28.5977 64.8832 23.9037 62.8162 19.5475C62.4627 18.7971 61.7066 18.3154 60.8923 18.3154C60.5688 18.3154 60.2566 18.3883 59.967 18.5323C58.9025 19.0581 58.4605 20.3631 58.972 21.4473C60.7569 25.2068 61.6615 29.2598 61.6615 33.499C61.6615 48.7785 49.4763 61.2063 34.5057 61.2063C19.5351 61.2063 7.35182 48.7766 7.35182 33.499C7.35182 18.2214 19.537 5.79167 34.5057 5.79167C37.2929 5.79167 39.9974 6.20618 42.5759 7.01794" fill="#2FA2CC"/>
</svg>
