<svg width="32" height="27" viewBox="0 0 32 27" fill="none" xmlns="http://www.w3.org/2000/svg">
<path d="M25.2842 7.3322C25.1633 7.3322 25.0432 7.30609 24.9281 7.2522C24.5102 7.05346 24.3301 6.54988 24.5269 6.12799L25.4393 4.16925C25.6362 3.74651 26.1349 3.56546 26.5528 3.7642C26.9715 3.96209 27.1508 4.46567 26.954 4.88757L26.0415 6.8463C25.8997 7.15367 25.5986 7.3322 25.2842 7.3322Z" fill="white"/>
<path d="M27.2017 11.7877C26.8231 11.7877 26.4803 11.5275 26.3885 11.1393C26.2793 10.6854 26.557 10.2307 27.0066 10.1212L29.1217 9.60918C29.5721 9.50055 30.0242 9.77928 30.1309 10.2349C30.2385 10.6879 29.9624 11.1443 29.5129 11.2521L27.3952 11.7641C27.331 11.781 27.2651 11.7877 27.2017 11.7877Z" fill="white"/>
<path d="M29.1833 17.9655C29.004 17.9655 28.8222 17.9082 28.6696 17.7878L26.9789 16.4589C26.6136 16.1726 26.5469 15.6413 26.8321 15.2733C27.1166 14.9044 27.642 14.8387 28.0065 15.1251L29.6971 16.4539C30.0624 16.7394 30.1291 17.2716 29.8439 17.6396C29.6796 17.8535 29.4335 17.9655 29.1833 17.9655Z" fill="white"/>
<path d="M27.0116 22.5955L20.8522 1.68437C20.7246 1.25742 20.3034 0.96521 19.8697 1.05532C19.3818 1.15637 19.0957 1.65237 19.2341 2.12395L24.5295 20.1433H24.5178L19.3409 20.1349C19.3375 20.1349 19.3342 20.1315 19.3342 20.1315L15.7578 7.99595L14.8654 6.55847L4.06776 13.697C2.62569 14.6494 1.97346 16.4482 2.46472 18.1164L2.72244 18.9888C3.21369 20.6578 4.73333 21.8039 6.45732 21.8065H6.74423C6.74757 21.8065 6.7509 21.8098 6.75257 21.8132C7.1379 24.0684 9.01702 25.7686 11.359 25.9143C11.3782 25.9151 11.3966 25.9168 11.4166 25.9185C11.4841 25.9218 11.5525 25.9235 11.6209 25.9235C11.6401 25.9235 11.6585 25.9252 11.6785 25.9252H11.681H11.6843C11.7043 25.9252 11.7227 25.9235 11.741 25.9235C11.8102 25.9235 11.8786 25.9218 11.9462 25.9185C11.9662 25.9168 11.9846 25.9151 12.0046 25.9143C14.3391 25.7694 16.2165 24.0743 16.6085 21.8275C16.6085 21.8242 16.6119 21.8208 16.6119 21.8208L25.0349 21.8334C25.0383 21.8334 25.0416 21.8359 25.0425 21.8393L25.4228 23.1277C25.5312 23.4941 25.8632 23.7324 26.2243 23.7324C26.3252 23.7324 26.4295 23.713 26.5304 23.6734C26.9449 23.5101 27.1384 23.025 27.0116 22.5955ZM14.3157 22.9677C14.2765 22.9997 14.2365 23.0351 14.2031 23.0755C13.656 23.7105 12.9004 24.1096 12.0847 24.209C12.0688 24.2107 12.053 24.2141 12.0371 24.2166C11.9387 24.2258 11.8386 24.2309 11.7385 24.2317C11.7202 24.2343 11.701 24.2359 11.6818 24.2359C11.6626 24.2359 11.6443 24.2343 11.6259 24.2317C11.5258 24.2309 11.4266 24.2258 11.3273 24.2166C11.3107 24.2141 11.2956 24.2107 11.2798 24.209C10.4641 24.1096 9.70761 23.7105 9.16131 23.0755C9.12794 23.0351 9.08791 22.9997 9.04871 22.9677C8.78515 22.6334 8.58581 22.2435 8.46988 21.8208C8.46821 21.8141 8.47155 21.8082 8.47655 21.8082C8.75596 21.809 14.606 21.8174 14.8846 21.8191C14.8904 21.8191 14.8937 21.8242 14.8929 21.8301C14.7753 22.2486 14.5776 22.6334 14.3157 22.9677ZM17.576 20.1315L6.45982 20.1147C5.47397 20.1138 4.60739 19.4595 4.32715 18.5063L4.06943 17.633C3.79002 16.6806 4.16118 15.6541 4.98522 15.1084L14.2849 8.961C14.2907 8.95763 14.2966 8.96016 14.2991 8.96605L17.5835 20.1214C17.586 20.1265 17.5827 20.1315 17.576 20.1315Z" fill="white"/>
</svg>
