<svg width="28" height="24" viewBox="0 0 28 24" fill="none" xmlns="http://www.w3.org/2000/svg">
<path d="M22.1238 6.53084C22.018 6.53084 21.9129 6.50759 21.8122 6.45959C21.4465 6.28259 21.2889 5.83409 21.4611 5.45834L22.2595 3.71384C22.4318 3.33734 22.8682 3.17609 23.2338 3.35309C23.6002 3.52934 23.7571 3.97784 23.5848 4.35359L22.7865 6.09809C22.6624 6.37184 22.3989 6.53084 22.1238 6.53084Z" fill="white"/>
<path d="M23.8014 10.4983C23.4701 10.4983 23.1702 10.2665 23.0899 9.92076C22.9943 9.51651 23.2373 9.11151 23.6307 9.01401L25.4814 8.55801C25.8755 8.46126 26.2711 8.70951 26.3645 9.11526C26.4586 9.51876 26.2171 9.92526 25.8237 10.0213L23.9708 10.4773C23.9146 10.4923 23.8569 10.4983 23.8014 10.4983Z" fill="white"/>
<path d="M25.5355 16.0009C25.3786 16.0009 25.2195 15.9499 25.0859 15.8426L23.6067 14.6591C23.287 14.4041 23.2286 13.9309 23.4782 13.6031C23.7271 13.2746 24.1868 13.2161 24.5058 13.4711L25.985 14.6546C26.3047 14.9089 26.3631 15.3829 26.1135 15.7106C25.9697 15.9011 25.7544 16.0009 25.5355 16.0009Z" fill="white"/>
<path d="M23.6352 20.1236L18.2457 1.49962C18.134 1.11937 17.7655 0.859123 17.386 0.939373C16.959 1.02937 16.7087 1.47112 16.8299 1.89112L21.4633 17.9396H21.4531L16.9233 17.9321C16.9204 17.9321 16.9174 17.9291 16.9174 17.9291L13.7881 7.12087L13.0072 5.84062L3.55929 12.1984C2.29748 13.0466 1.72678 14.6486 2.15662 16.1344L2.38213 16.9114C2.81198 18.3979 4.14166 19.4186 5.65015 19.4209H5.9012C5.90412 19.4209 5.90704 19.4239 5.90849 19.4269C6.24566 21.4354 7.88989 22.9496 9.93915 23.0794C9.95593 23.0801 9.97199 23.0816 9.9895 23.0831C10.0486 23.0861 10.1085 23.0876 10.1683 23.0876C10.1851 23.0876 10.2011 23.0891 10.2187 23.0891H10.2208H10.2238C10.2413 23.0891 10.2573 23.0876 10.2734 23.0876C10.334 23.0876 10.3938 23.0861 10.4529 23.0831C10.4704 23.0816 10.4865 23.0801 10.504 23.0794C12.5467 22.9504 14.1895 21.4406 14.5325 19.4396C14.5325 19.4366 14.5354 19.4336 14.5354 19.4336L21.9056 19.4449C21.9085 19.4449 21.9114 19.4471 21.9121 19.4501L22.2449 20.5976C22.3398 20.9239 22.6303 21.1361 22.9463 21.1361C23.0346 21.1361 23.1258 21.1189 23.2141 21.0836C23.5768 20.9381 23.7461 20.5061 23.6352 20.1236ZM12.5263 20.4551C12.492 20.4836 12.4569 20.5151 12.4277 20.5511C11.949 21.1166 11.2878 21.4721 10.5741 21.5606C10.5602 21.5621 10.5463 21.5651 10.5325 21.5674C10.4464 21.5756 10.3588 21.5801 10.2712 21.5809C10.2551 21.5831 10.2384 21.5846 10.2216 21.5846C10.2048 21.5846 10.1887 21.5831 10.1727 21.5809C10.0851 21.5801 9.99826 21.5756 9.91142 21.5674C9.89682 21.5651 9.88368 21.5621 9.86982 21.5606C9.15608 21.4721 8.49415 21.1166 8.01614 20.5511C7.98695 20.5151 7.95192 20.4836 7.91762 20.4551C7.687 20.1574 7.51258 19.8101 7.41114 19.4336C7.40968 19.4276 7.4126 19.4224 7.41698 19.4224C7.66146 19.4231 12.7802 19.4306 13.024 19.4321C13.0291 19.4321 13.032 19.4366 13.0313 19.4419C12.9284 19.8146 12.7554 20.1574 12.5263 20.4551ZM15.379 17.9291L5.65234 17.9141C4.78972 17.9134 4.03147 17.3306 3.78625 16.4816L3.56075 15.7039C3.31627 14.8556 3.64103 13.9414 4.36206 13.4554L12.4993 7.98037C12.5044 7.97737 12.5095 7.97962 12.5117 7.98487L15.3856 17.9201C15.3878 17.9246 15.3849 17.9291 15.379 17.9291Z" fill="white"/>
</svg>
