<svg width="16" height="16" viewBox="0 0 16 16" fill="none" xmlns="http://www.w3.org/2000/svg">
<path fill-rule="evenodd" clip-rule="evenodd" d="M12.3915 13.2081C11.0786 14.334 9.37226 15.0142 7.5071 15.0142C3.36104 15.0142 0 11.6532 0 7.5071C0 3.36104 3.36104 0 7.5071 0C11.6532 0 15.0142 3.36104 15.0142 7.5071C15.0142 9.37226 14.334 11.0786 13.2081 12.3915L16 15.1833L15.1833 16L12.3915 13.2081ZM13.8593 7.5071C13.8593 11.0153 11.0153 13.8593 7.5071 13.8593C3.9989 13.8593 1.15494 11.0153 1.15494 7.5071C1.15494 3.9989 3.9989 1.15494 7.5071 1.15494C11.0153 1.15494 13.8593 3.9989 13.8593 7.5071Z" fill="#A9A9A9"/>
</svg>
