<svg width="16" height="15" viewBox="0 0 16 15" fill="none" xmlns="http://www.w3.org/2000/svg">
<g id="Trash Can">
<path id="body" d="M15.3636 0.272728H0.636353V15H15.3636V0.272728Z" fill="#AE0A0A"/>
<g id="body-lines">
<path id="Vector 3" d="M3.09089 11.7273C3.19051 12.401 3.28309 12.5149 3.90907 12.5455C4.53505 12.576 4.56295 12.4978 4.72725 11.7273V3.54545C4.70475 2.92875 4.51512 2.76059 3.90907 2.72727C3.28765 2.80074 3.01975 2.9076 3.09089 3.54545V11.7273Z" fill="#F9F9F9"/>
<path id="Vector 4" d="M7.193 11.7273C7.29262 12.401 7.3852 12.5149 8.01118 12.5455C8.63717 12.576 8.66506 12.4978 8.82937 11.7273V3.54545C8.80686 2.92875 8.61723 2.76059 8.01118 2.72727C7.38977 2.80074 7.12187 2.9076 7.193 3.54545V11.7273Z" fill="#F9F9F9"/>
<path id="Vector 5" d="M11.2839 11.7273C11.3835 12.401 11.4761 12.5149 12.1021 12.5455C12.7281 12.576 12.756 12.4978 12.9203 11.7273V3.54545C12.8978 2.92875 12.7081 2.76059 12.1021 2.72727C11.4807 2.80074 11.2128 2.9076 11.2839 3.54545V11.7273Z" fill="#F9F9F9"/>
</g>
</g>
</svg>
