<svg width="48" height="48" viewBox="0 0 48 48" fill="none" xmlns="http://www.w3.org/2000/svg">
<rect x="0.5" y="0.5" width="47" height="47" rx="9.5" stroke="#FFAEAE"/>
<path d="M16.5003 19V34H31.5003V19H16.5003ZM20.667 30.6667C20.667 31.1267 20.2937 31.5 19.8337 31.5C19.3737 31.5 19.0003 31.1267 19.0003 30.6667V22.3333C19.0003 21.8733 19.3737 21.5 19.8337 21.5C20.2937 21.5 20.667 21.8733 20.667 22.3333V30.6667ZM24.8337 30.6667C24.8337 31.1267 24.4603 31.5 24.0003 31.5C23.5403 31.5 23.167 31.1267 23.167 30.6667V22.3333C23.167 21.8733 23.5403 21.5 24.0003 21.5C24.4603 21.5 24.8337 21.8733 24.8337 22.3333V30.6667ZM29.0003 30.6667C29.0003 31.1267 28.627 31.5 28.167 31.5C27.707 31.5 27.3337 31.1267 27.3337 30.6667V22.3333C27.3337 21.8733 27.707 21.5 28.167 21.5C28.627 21.5 29.0003 21.8733 29.0003 22.3333V30.6667ZM32.3337 15.6667V17.3333H15.667V15.6667H20.4262C21.1762 15.6667 21.7853 14.7508 21.7853 14H26.2145C26.2145 14.7508 26.8228 15.6667 27.5737 15.6667H32.3337Z" fill="#CF424B"/>
</svg>
