<svg width="11" height="11" viewBox="0 0 11 11" fill="none" xmlns="http://www.w3.org/2000/svg">
<g clip-path="url(#clip0)">
<path d="M5.19814 8.34504L0.124392 3.25722C-0.0417463 3.09052 -0.041467 2.82064 0.125251 2.65422C0.291948 2.48793 0.561984 2.48836 0.728251 2.65508L5.50002 7.44006L10.2718 2.65491C10.4381 2.48821 10.7079 2.48778 10.8746 2.65405C10.9582 2.73747 11 2.84676 11 2.95605C11 3.06507 10.9585 3.17393 10.8755 3.2572L5.80187 8.34504C5.722 8.42533 5.61328 8.47038 5.50002 8.47038C5.38675 8.47038 5.27817 8.4252 5.19814 8.34504Z" fill="#272727"/>
</g>
<defs>
<clipPath id="clip0">
<rect width="11" height="11" fill="white" transform="matrix(-4.37114e-08 1 1 4.37114e-08 0 0)"/>
</clipPath>
</defs>
</svg>
