<svg width="33" height="32" viewBox="0 0 33 32" fill="none" xmlns="http://www.w3.org/2000/svg">
<path d="M16.6304 24.0305C15.2596 24.0305 14.1433 22.8921 14.1433 21.4953C14.1433 20.0975 15.2587 18.9601 16.6304 18.9601C18.0021 18.9601 19.1165 20.0966 19.1165 21.4953C19.1165 22.8921 18.0021 24.0305 16.6304 24.0305ZM16.6304 20.3853C16.0295 20.3853 15.5411 20.883 15.5411 21.4953C15.5411 22.1076 16.0295 22.6053 16.6304 22.6053C17.2321 22.6053 17.7214 22.1076 17.7214 21.4953C17.7214 20.883 17.2321 20.3853 16.6304 20.3853Z" fill="#1C223F"/>
<path d="M16.6304 17.8198C15.2659 17.8198 14.7712 16.3588 14.6075 15.8794C14.4114 15.2992 14.2234 14.5238 14.048 13.5697C13.7611 12.0014 13.5596 10.226 13.5596 9.6156C13.5596 7.88971 14.9367 6.48645 16.6304 6.48645C18.3241 6.48645 19.7012 7.88971 19.7012 9.6156C19.7012 10.226 19.5006 12.0023 19.2128 13.5697C19.0392 14.522 18.8503 15.2992 18.6533 15.8776C18.4896 16.3588 17.9949 17.8198 16.6304 17.8198ZM16.6304 7.90896C15.7084 7.90896 14.9565 8.67337 14.9565 9.61468C14.9565 10.0876 15.1382 11.7613 15.4215 13.3075C15.5843 14.192 15.7543 14.8987 15.9279 15.4129C16.0826 15.8693 16.3039 16.3936 16.6304 16.3936C16.956 16.3936 17.1773 15.8693 17.3329 15.4129C17.5065 14.8987 17.6774 14.192 17.8384 13.3075C18.1217 11.7604 18.3034 10.0867 18.3034 9.61468C18.3043 8.67337 17.5524 7.90896 16.6304 7.90896Z" fill="#1C223F"/>
<path d="M20.9541 1.37114C19.5203 0.917442 18.0164 0.681885 16.5008 0.681885C8.21123 0.681885 1.46875 7.55428 1.46875 16.0004C1.46875 24.4456 8.21123 31.318 16.5008 31.318C24.7913 31.318 31.532 24.4456 31.532 16.0004C31.532 13.6586 31.031 11.4167 30.0424 9.33608C29.8733 8.97771 29.5117 8.74765 29.1223 8.74765C28.9676 8.74765 28.8182 8.78248 28.6797 8.85122C28.1706 9.10236 27.9592 9.72562 28.2039 10.2435C29.0575 12.039 29.4901 13.9748 29.4901 15.9995C29.4901 23.2972 23.6624 29.2329 16.5026 29.2329C9.34277 29.2329 3.51596 23.2963 3.51596 15.9995C3.51596 8.70274 9.34367 2.76615 16.5026 2.76615C17.8356 2.76615 19.1291 2.96413 20.3623 3.35184" fill="#2FA2CC"/>
</svg>
