<svg width="21" height="21" viewBox="0 0 21 21" fill="none" xmlns="http://www.w3.org/2000/svg">
<g clip-path="url(#clip0)">
<path d="M5.25 12.25H10.5V7C13.3954 7 15.75 9.35462 15.75 12.25C15.75 15.1454 13.3954 17.5 10.5 17.5C7.60463 17.5 5.25 15.1454 5.25 12.25ZM19.25 12.25C19.25 17.0826 15.3318 21 10.5 21C5.66825 21 1.75 17.0826 1.75 12.25C1.75 7.41738 5.66825 3.5 10.5 3.5C15.3318 3.5 19.25 7.41738 19.25 12.25ZM17.5 12.25C17.5 8.39038 14.3596 5.25 10.5 5.25C6.64038 5.25 3.5 8.39038 3.5 12.25C3.5 16.1096 6.64038 19.25 10.5 19.25C14.3596 19.25 17.5 16.1096 17.5 12.25ZM12.25 1.90838V0H8.75V1.90838C9.982 1.70012 10.9918 1.69575 12.25 1.90838ZM18.0941 5.01813L19.25 3.86225L18.0128 2.625L16.7816 3.85613C17.2506 4.20788 17.6899 4.59462 18.0941 5.01813Z" fill="#535353"/>
</g>
<defs>
<clipPath id="clip0">
<rect width="21" height="21" fill="white"/>
</clipPath>
</defs>
</svg>
