<svg width="28" height="28" viewBox="0 0 28 28" fill="none" xmlns="http://www.w3.org/2000/svg">
<path d="M8.39999 22.4C6.85301 22.4 5.61401 23.653 5.61401 25.2001C5.61401 26.7471 6.85301 28.0001 8.39999 28.0001C9.94697 28.0001 11.2 26.7471 11.2 25.2001C11.2 23.653 9.94697 22.4 8.39999 22.4Z" fill="#181818"/>
<path d="M9.94001 15.4H20.37C21.42 15.4 22.337 14.819 22.82 13.958L27.825 4.872C27.937 4.67597 28 4.44497 28 4.2C28 3.423 27.37 2.80002 26.6 2.80002H5.901L4.57097 0H0V2.80002H2.80002L7.83299 13.419L5.943 16.849C5.72597 17.255 5.59997 17.71 5.59997 18.2C5.59997 19.747 6.85302 21 8.39999 21H25.2V18.2H8.99502C8.79899 18.2 8.64504 18.0459 8.64504 17.85C8.64504 17.787 8.65901 17.731 8.68704 17.682L9.94001 15.4Z" fill="#181818"/>
<path d="M22.3999 22.4C20.8529 22.4 19.6139 23.653 19.6139 25.2001C19.6139 26.7471 20.8529 28.0001 22.3999 28.0001C23.9469 28.0001 25.1999 26.747 25.1999 25.2001C25.1999 23.6531 23.9469 22.4 22.3999 22.4Z" fill="#181818"/>
</svg>
