<svg width="53" height="53" viewBox="0 0 53 53" fill="none" xmlns="http://www.w3.org/2000/svg">
<path d="M24.6979 14.1228H22.0115H14.1675H11.481C10.7274 14.1228 10.1146 14.734 10.1146 15.4892C10.1146 16.2461 10.7274 16.8589 11.481 16.8589H14.1675H22.0131H24.6996C25.4565 16.8589 26.0693 16.2461 26.0693 15.4892C26.0676 14.734 25.4548 14.1228 24.6979 14.1228Z" fill="#1C223F"/>
<path d="M24.6979 36.0068H22.0115H14.1675H11.481C10.7274 36.0068 10.1146 36.618 10.1146 37.3749C10.1146 38.1318 10.7274 38.7396 11.481 38.7396H14.1675H22.0131H24.6996C25.4565 38.7396 26.0693 38.1318 26.0693 37.3749C26.0693 36.618 25.4548 36.0068 24.6979 36.0068Z" fill="#1C223F"/>
<path d="M20.3917 25.0591H12.6967H11.481C10.7274 25.0591 10.1146 25.6702 10.1146 26.4255C10.1146 27.1807 10.7291 27.7936 11.481 27.7936H12.6967H18.3661H19.1776L20.3917 25.0591Z" fill="#1C223F"/>
<path d="M22.3726 25.1915C22.361 25.2197 22.3478 25.2412 22.3345 25.2694L19.7508 31.52C19.4278 32.3001 19.5007 33.1597 19.9412 33.8239C20.3735 34.4682 21.1006 34.8524 21.889 34.8524C22.2219 34.8524 22.5565 34.7845 22.8827 34.652L29.1334 32.0666C29.2825 32.0037 29.42 31.9275 29.5458 31.8331H29.5525L29.5872 31.8C29.7181 31.6973 29.8307 31.5797 29.9334 31.4538L38.0258 23.358C38.0772 23.31 38.1616 23.3448 38.1616 23.416V39.5645C38.1616 39.5876 38.1534 39.6059 38.1385 39.6224L30.8294 46.9298H30.8228H6.95955C6.4163 46.9298 5.97408 46.4892 5.97408 45.946V6.90486C5.97408 6.35995 6.4163 5.91939 6.95955 5.91939H14.5882V3.18823H6.8817C4.87433 3.18823 3.24292 4.81964 3.24292 6.82536V45.9476C3.24292 48.0014 4.90745 49.6643 6.95955 49.6643H31.5068C32.06 49.6643 32.5354 49.3347 32.749 48.8593L32.7573 48.8693L40.868 40.7536C40.8845 40.7404 40.8911 40.7205 40.8911 40.699V20.5259C40.8911 20.506 40.9011 20.4861 40.916 20.4712L44.8032 16.584L48.172 13.2152C48.6954 12.6918 49.0664 12.0127 49.1244 11.2757C49.1939 10.4012 48.8842 9.56314 48.2697 8.94867L45.5485 6.22745C45.0268 5.70408 44.3461 5.33639 43.6107 5.27842C42.7345 5.20886 41.8981 5.51858 41.2853 6.12973L39.2134 8.20005L22.9109 24.5058C22.7999 24.5953 22.7005 24.6946 22.6095 24.8073L22.3726 25.1915ZM27.2254 30.0708L22.4654 32.0385C22.3991 32.0683 22.3345 32.0004 22.3627 31.9358L24.3286 27.1757C24.3485 27.126 24.4164 27.1094 24.4562 27.1509L27.2503 29.9433C27.29 29.9847 27.2784 30.051 27.2254 30.0708ZM42.2774 15.2408L29.2162 28.302C29.1864 28.3318 29.1367 28.3318 29.1053 28.302L26.1008 25.2942C26.0677 25.2644 26.0677 25.2147 26.1008 25.1832L39.1587 12.122C39.1902 12.0922 39.2415 12.0922 39.2713 12.122L42.2774 15.1298C42.3089 15.1613 42.3089 15.2109 42.2774 15.2408ZM46.3386 11.1813L44.3245 13.1936C44.2914 13.2268 44.2434 13.2268 44.2152 13.197C43.9171 12.9005 43.5792 12.5576 43.2231 12.2065L42.236 11.2194C41.8634 10.8484 41.5106 10.494 41.2042 10.1842C41.171 10.1544 41.1744 10.1047 41.2058 10.0766L43.2198 8.06258C43.2712 8.01123 43.3291 7.99798 43.3689 7.99798C43.4086 7.99798 43.4716 8.01123 43.5213 8.06258L46.3386 10.8815C46.3899 10.9329 46.4015 10.9908 46.4015 11.0306C46.4015 11.0703 46.3899 11.13 46.3386 11.1813Z" fill="#2FA2CC"/>
</svg>
